<svg xmlns="http://www.w3.org/2000/svg" width="1120" height="600" viewBox="0 0 1120 600" role="img" aria-label="What the top 10 is made of"><rect x="0.5" y="0.5" width="1119" height="599" rx="16" fill="#161b21" stroke="#ffffff14"/><text x="44.0" y="52.0" font-family="Inter, -apple-system, BlinkMacSystemFont, 'SF Pro Text', 'Segoe UI', Roboto, sans-serif" font-size="11" font-weight="600" fill="#12a150" text-anchor="start" letter-spacing="0.12em" style="">FIGURE 5 · LEGACY</text><text x="44.0" y="84.0" font-family="Inter, -apple-system, BlinkMacSystemFont, 'SF Pro Text', 'Segoe UI', Roboto, sans-serif" font-size="24" font-weight="650" fill="#eef2f6" text-anchor="start" letter-spacing="-0.01em" style="">What the top 10 is made of</text><text x="44.0" y="110.0" font-family="Inter, -apple-system, BlinkMacSystemFont, 'SF Pro Text', 'Segoe UI', Roboto, sans-serif" font-size="14" font-weight="400" fill="#a3adb8" text-anchor="start" style="">Final score = 0.65 · personal fit + 0.30 · quality + 0.05 · mood (0 without a mood)</text><rect x="44" y="136" width="10" height="10" rx="3" fill="#12a150"/><text x="61.0" y="146.0" font-family="Inter, -apple-system, BlinkMacSystemFont, 'SF Pro Text', 'Segoe UI', Roboto, sans-serif" font-size="13" font-weight="400" fill="#a3adb8" text-anchor="start" style="">0.65 × personal fit</text><rect x="214.8" y="136" width="10" height="10" rx="3" fill="#3987e5"/><text x="231.8" y="146.0" font-family="Inter, -apple-system, BlinkMacSystemFont, 'SF Pro Text', 'Segoe UI', Roboto, sans-serif" font-size="13" font-weight="400" fill="#a3adb8" text-anchor="start" style="">0.30 × quality</text><line x1="400.0" y1="164" x2="400.0" y2="548" stroke="#1f262e"/><text x="400.0" y="568.0" font-family="Inter, -apple-system, BlinkMacSystemFont, 'SF Pro Text', 'Segoe UI', Roboto, sans-serif" font-size="12" font-weight="400" fill="#6f7a86" text-anchor="middle" style="font-variant-numeric:tabular-nums;">0</text><line x1="517.5" y1="164" x2="517.5" y2="548" stroke="#1f262e"/><text x="517.5" y="568.0" font-family="Inter, -apple-system, BlinkMacSystemFont, 'SF Pro Text', 'Segoe UI', Roboto, sans-serif" font-size="12" font-weight="400" fill="#6f7a86" text-anchor="middle" style="font-variant-numeric:tabular-nums;">25</text><line x1="635.0" y1="164" x2="635.0" y2="548" stroke="#1f262e"/><text x="635.0" y="568.0" font-family="Inter, -apple-system, BlinkMacSystemFont, 'SF Pro Text', 'Segoe UI', Roboto, sans-serif" font-size="12" font-weight="400" fill="#6f7a86" text-anchor="middle" style="font-variant-numeric:tabular-nums;">50</text><line x1="752.5" y1="164" x2="752.5" y2="548" stroke="#1f262e"/><text x="752.5" y="568.0" font-family="Inter, -apple-system, BlinkMacSystemFont, 'SF Pro Text', 'Segoe UI', Roboto, sans-serif" font-size="12" font-weight="400" fill="#6f7a86" text-anchor="middle" style="font-variant-numeric:tabular-nums;">75</text><line x1="870.0" y1="164" x2="870.0" y2="548" stroke="#1f262e"/><text x="870.0" y="568.0" font-family="Inter, -apple-system, BlinkMacSystemFont, 'SF Pro Text', 'Segoe UI', Roboto, sans-serif" font-size="12" font-weight="400" fill="#6f7a86" text-anchor="middle" style="font-variant-numeric:tabular-nums;">100</text><text x="44.0" y="189.0" font-family="Inter, -apple-system, BlinkMacSystemFont, 'SF Pro Text', 'Segoe UI', Roboto, sans-serif" font-size="13" font-weight="400" fill="#6f7a86" text-anchor="start" style="font-variant-numeric:tabular-nums;">1</text><text x="74.0" y="189.0" font-family="Inter, -apple-system, BlinkMacSystemFont, 'SF Pro Text', 'Segoe UI', Roboto, sans-serif" font-size="14" font-weight="400" fill="#eef2f6" text-anchor="start" style="">Rushmore (1998)</text><rect x="400" y="176" width="305.5" height="16" fill="#12a150"><title>Personal fit × 0.65: 65.0</title></rect><path d="M707.5,176.0 h103.7 a4.0,4.0 0 0 1 4.0,4.0 v8.0 a4.0,4.0 0 0 1 -4.0,4.0 h-103.7 z" fill="#3987e5"><title>Quality × 0.30: 23.3</title></path><text x="829.2" y="189.0" font-family="Inter, -apple-system, BlinkMacSystemFont, 'SF Pro Text', 'Segoe UI', Roboto, sans-serif" font-size="14" font-weight="650" fill="#eef2f6" text-anchor="start" style="font-variant-numeric:tabular-nums;">88.3</text><text x="44.0" y="227.0" font-family="Inter, -apple-system, BlinkMacSystemFont, 'SF Pro Text', 'Segoe UI', Roboto, sans-serif" font-size="13" font-weight="400" fill="#6f7a86" text-anchor="start" style="font-variant-numeric:tabular-nums;">2</text><text x="74.0" y="227.0" font-family="Inter, -apple-system, BlinkMacSystemFont, 'SF Pro Text', 'Segoe UI', Roboto, sans-serif" font-size="14" font-weight="400" fill="#eef2f6" text-anchor="start" style="">The Lego Batman Movie (2017)</text><rect x="400" y="214" width="295.1" height="16" fill="#12a150"><title>Personal fit × 0.65: 62.8</title></rect><path d="M697.1,214.0 h106.0 a4.0,4.0 0 0 1 4.0,4.0 v8.0 a4.0,4.0 0 0 1 -4.0,4.0 h-106.0 z" fill="#3987e5"><title>Quality × 0.30: 23.8</title></path><text x="821.1" y="227.0" font-family="Inter, -apple-system, BlinkMacSystemFont, 'SF Pro Text', 'Segoe UI', Roboto, sans-serif" font-size="14" font-weight="650" fill="#eef2f6" text-anchor="start" style="font-variant-numeric:tabular-nums;">86.6</text><text x="44.0" y="265.0" font-family="Inter, -apple-system, BlinkMacSystemFont, 'SF Pro Text', 'Segoe UI', Roboto, sans-serif" font-size="13" font-weight="400" fill="#6f7a86" text-anchor="start" style="font-variant-numeric:tabular-nums;">3</text><text x="74.0" y="265.0" font-family="Inter, -apple-system, BlinkMacSystemFont, 'SF Pro Text', 'Segoe UI', Roboto, sans-serif" font-size="14" font-weight="400" fill="#eef2f6" text-anchor="start" style="">The Ballad of Buster Scruggs (2018)</text><rect x="400" y="252" width="305.5" height="16" fill="#12a150"><title>Personal fit × 0.65: 65.0</title></rect><path d="M707.5,252.0 h96.9 a4.0,4.0 0 0 1 4.0,4.0 v8.0 a4.0,4.0 0 0 1 -4.0,4.0 h-96.9 z" fill="#3987e5"><title>Quality × 0.30: 21.9</title></path><text x="822.4" y="265.0" font-family="Inter, -apple-system, BlinkMacSystemFont, 'SF Pro Text', 'Segoe UI', Roboto, sans-serif" font-size="14" font-weight="650" fill="#eef2f6" text-anchor="start" style="font-variant-numeric:tabular-nums;">86.9</text><text x="44.0" y="303.0" font-family="Inter, -apple-system, BlinkMacSystemFont, 'SF Pro Text', 'Segoe UI', Roboto, sans-serif" font-size="13" font-weight="400" fill="#6f7a86" text-anchor="start" style="font-variant-numeric:tabular-nums;">4</text><text x="74.0" y="303.0" font-family="Inter, -apple-system, BlinkMacSystemFont, 'SF Pro Text', 'Segoe UI', Roboto, sans-serif" font-size="14" font-weight="400" fill="#eef2f6" text-anchor="start" style="">After Hours (1985)</text><rect x="400" y="290" width="288.1" height="16" fill="#12a150"><title>Personal fit × 0.65: 61.3</title></rect><path d="M690.1,290.0 h110.5 a4.0,4.0 0 0 1 4.0,4.0 v8.0 a4.0,4.0 0 0 1 -4.0,4.0 h-110.5 z" fill="#3987e5"><title>Quality × 0.30: 24.8</title></path><text x="818.6" y="303.0" font-family="Inter, -apple-system, BlinkMacSystemFont, 'SF Pro Text', 'Segoe UI', Roboto, sans-serif" font-size="14" font-weight="650" fill="#eef2f6" text-anchor="start" style="font-variant-numeric:tabular-nums;">86.1</text><text x="44.0" y="341.0" font-family="Inter, -apple-system, BlinkMacSystemFont, 'SF Pro Text', 'Segoe UI', Roboto, sans-serif" font-size="13" font-weight="400" fill="#6f7a86" text-anchor="start" style="font-variant-numeric:tabular-nums;">5</text><text x="74.0" y="341.0" font-family="Inter, -apple-system, BlinkMacSystemFont, 'SF Pro Text', 'Segoe UI', Roboto, sans-serif" font-size="14" font-weight="400" fill="#eef2f6" text-anchor="start" style="">The Lord of the Rings: The Return of the Ki…</text><rect x="400" y="328" width="223.0" height="16" fill="#12a150"><title>Personal fit × 0.65: 47.5</title></rect><path d="M625.0,328.0 h122.3 a4.0,4.0 0 0 1 4.0,4.0 v8.0 a4.0,4.0 0 0 1 -4.0,4.0 h-122.3 z" fill="#3987e5"><title>Quality × 0.30: 27.3</title></path><text x="765.3" y="341.0" font-family="Inter, -apple-system, BlinkMacSystemFont, 'SF Pro Text', 'Segoe UI', Roboto, sans-serif" font-size="14" font-weight="650" fill="#eef2f6" text-anchor="start" style="font-variant-numeric:tabular-nums;">74.8</text><rect x="813.3" y="327" width="118" height="19" rx="9.5" fill="none" stroke="#3a4450"/><text x="872.3" y="340.0" font-family="Inter, -apple-system, BlinkMacSystemFont, 'SF Pro Text', 'Segoe UI', Roboto, sans-serif" font-size="10" font-weight="600" fill="#a3adb8" text-anchor="middle" letter-spacing="0.08em" style="">EXPLORATION SLOT</text><text x="44.0" y="379.0" font-family="Inter, -apple-system, BlinkMacSystemFont, 'SF Pro Text', 'Segoe UI', Roboto, sans-serif" font-size="13" font-weight="400" fill="#6f7a86" text-anchor="start" style="font-variant-numeric:tabular-nums;">6</text><text x="74.0" y="379.0" font-family="Inter, -apple-system, BlinkMacSystemFont, 'SF Pro Text', 'Segoe UI', Roboto, sans-serif" font-size="14" font-weight="400" fill="#eef2f6" text-anchor="start" style="">Clerks (1994)</text><rect x="400" y="366" width="305.5" height="16" fill="#12a150"><title>Personal fit × 0.65: 65.0</title></rect><path d="M707.5,366.0 h102.0 a4.0,4.0 0 0 1 4.0,4.0 v8.0 a4.0,4.0 0 0 1 -4.0,4.0 h-102.0 z" fill="#3987e5"><title>Quality × 0.30: 23.0</title></path><text x="827.5" y="379.0" font-family="Inter, -apple-system, BlinkMacSystemFont, 'SF Pro Text', 'Segoe UI', Roboto, sans-serif" font-size="14" font-weight="650" fill="#eef2f6" text-anchor="start" style="font-variant-numeric:tabular-nums;">88.0</text><text x="44.0" y="417.0" font-family="Inter, -apple-system, BlinkMacSystemFont, 'SF Pro Text', 'Segoe UI', Roboto, sans-serif" font-size="13" font-weight="400" fill="#6f7a86" text-anchor="start" style="font-variant-numeric:tabular-nums;">7</text><text x="74.0" y="417.0" font-family="Inter, -apple-system, BlinkMacSystemFont, 'SF Pro Text', 'Segoe UI', Roboto, sans-serif" font-size="14" font-weight="400" fill="#eef2f6" text-anchor="start" style="">Hannah and Her Sisters (1986)</text><rect x="400" y="404" width="298.2" height="16" fill="#12a150"><title>Personal fit × 0.65: 63.4</title></rect><path d="M700.2,404.0 h107.1 a4.0,4.0 0 0 1 4.0,4.0 v8.0 a4.0,4.0 0 0 1 -4.0,4.0 h-107.1 z" fill="#3987e5"><title>Quality × 0.30: 24.1</title></path><text x="825.2" y="417.0" font-family="Inter, -apple-system, BlinkMacSystemFont, 'SF Pro Text', 'Segoe UI', Roboto, sans-serif" font-size="14" font-weight="650" fill="#eef2f6" text-anchor="start" style="font-variant-numeric:tabular-nums;">87.5</text><text x="44.0" y="455.0" font-family="Inter, -apple-system, BlinkMacSystemFont, 'SF Pro Text', 'Segoe UI', Roboto, sans-serif" font-size="13" font-weight="400" fill="#6f7a86" text-anchor="start" style="font-variant-numeric:tabular-nums;">8</text><text x="74.0" y="455.0" font-family="Inter, -apple-system, BlinkMacSystemFont, 'SF Pro Text', 'Segoe UI', Roboto, sans-serif" font-size="14" font-weight="400" fill="#eef2f6" text-anchor="start" style="">22 Jump Street (2014)</text><rect x="400" y="442" width="305.5" height="16" fill="#12a150"><title>Personal fit × 0.65: 65.0</title></rect><path d="M707.5,442.0 h89.0 a4.0,4.0 0 0 1 4.0,4.0 v8.0 a4.0,4.0 0 0 1 -4.0,4.0 h-89.0 z" fill="#3987e5"><title>Quality × 0.30: 20.2</title></path><text x="814.5" y="455.0" font-family="Inter, -apple-system, BlinkMacSystemFont, 'SF Pro Text', 'Segoe UI', Roboto, sans-serif" font-size="14" font-weight="650" fill="#eef2f6" text-anchor="start" style="font-variant-numeric:tabular-nums;">85.2</text><text x="44.0" y="493.0" font-family="Inter, -apple-system, BlinkMacSystemFont, 'SF Pro Text', 'Segoe UI', Roboto, sans-serif" font-size="13" font-weight="400" fill="#6f7a86" text-anchor="start" style="font-variant-numeric:tabular-nums;">9</text><text x="74.0" y="493.0" font-family="Inter, -apple-system, BlinkMacSystemFont, 'SF Pro Text', 'Segoe UI', Roboto, sans-serif" font-size="14" font-weight="400" fill="#eef2f6" text-anchor="start" style="">A Dog's Will (2000)</text><rect x="400" y="480" width="274.6" height="16" fill="#12a150"><title>Personal fit × 0.65: 58.4</title></rect><path d="M676.6,480.0 h112.7 a4.0,4.0 0 0 1 4.0,4.0 v8.0 a4.0,4.0 0 0 1 -4.0,4.0 h-112.7 z" fill="#3987e5"><title>Quality × 0.30: 25.3</title></path><text x="807.4" y="493.0" font-family="Inter, -apple-system, BlinkMacSystemFont, 'SF Pro Text', 'Segoe UI', Roboto, sans-serif" font-size="14" font-weight="650" fill="#eef2f6" text-anchor="start" style="font-variant-numeric:tabular-nums;">83.7</text><text x="44.0" y="531.0" font-family="Inter, -apple-system, BlinkMacSystemFont, 'SF Pro Text', 'Segoe UI', Roboto, sans-serif" font-size="13" font-weight="400" fill="#6f7a86" text-anchor="start" style="font-variant-numeric:tabular-nums;">10</text><text x="74.0" y="531.0" font-family="Inter, -apple-system, BlinkMacSystemFont, 'SF Pro Text', 'Segoe UI', Roboto, sans-serif" font-size="14" font-weight="400" fill="#eef2f6" text-anchor="start" style="">Interstellar (2014)</text><rect x="400" y="518" width="201.0" height="16" fill="#12a150"><title>Personal fit × 0.65: 42.8</title></rect><path d="M603.0,518.0 h119.5 a4.0,4.0 0 0 1 4.0,4.0 v8.0 a4.0,4.0 0 0 1 -4.0,4.0 h-119.5 z" fill="#3987e5"><title>Quality × 0.30: 26.7</title></path><text x="740.5" y="531.0" font-family="Inter, -apple-system, BlinkMacSystemFont, 'SF Pro Text', 'Segoe UI', Roboto, sans-serif" font-size="14" font-weight="650" fill="#eef2f6" text-anchor="start" style="font-variant-numeric:tabular-nums;">69.5</text><rect x="788.5" y="517" width="118" height="19" rx="9.5" fill="none" stroke="#3a4450"/><text x="847.5" y="530.0" font-family="Inter, -apple-system, BlinkMacSystemFont, 'SF Pro Text', 'Segoe UI', Roboto, sans-serif" font-size="10" font-weight="600" fill="#a3adb8" text-anchor="middle" letter-spacing="0.08em" style="">EXPLORATION SLOT</text></svg>